<?xml version="1.0" standalone="no"?>
<!DOCTYPE svg PUBLIC "-//W3C//DTD SVG 20010904//EN"
 "http://www.w3.org/TR/2001/REC-SVG-20010904/DTD/svg10.dtd">
<svg version="1.0" xmlns="http://www.w3.org/2000/svg"
 width="163.000000pt" height="142.000000pt" viewBox="0 0 163.000000 142.000000"
 preserveAspectRatio="xMidYMid meet">
<metadata>
Created by potrace 1.16, written by Peter Selinger 2001-2019
</metadata>
<g transform="translate(0.000000,142.000000) scale(0.100000,-0.100000)"
fill="#000000" stroke="none">
<path d="M730 1319 c-141 -18 -291 -124 -362 -255 -76 -140 -77 -328 -4 -472
31 -62 49 -77 66 -58 6 9 9 19 6 25 -7 11 34 2 51 -12 20 -15 15 -44 -9 -61
-19 -13 -19 -17 -7 -32 46 -57 186 -116 298 -128 57 -7 63 -5 57 9 -3 9 -6 21
-6 26 0 5 -6 9 -14 9 -8 0 -18 4 -21 10 -3 5 0 7 9 4 8 -3 25 1 37 10 17 11
27 12 41 5 16 -9 25 -6 43 11 45 43 66 113 76 259 10 134 19 186 19 100 -1
-172 -32 -304 -85 -359 -25 -27 -44 -80 -28 -80 23 0 123 38 164 62 87 52 158
128 119 128 -5 0 -15 10 -21 22 -10 19 -8 25 22 50 33 28 34 31 34 103 0 41 3
67 7 57 10 -26 9 -83 -2 -122 -8 -27 -7 -38 5 -49 13 -13 17 -8 39 40 131 285
-43 627 -351 694 -30 6 -33 5 -33 -18 0 -13 -7 -30 -15 -37 -16 -13 -55 -5
-55 12 0 7 -16 9 -42 5 l-43 -5 40 12 c22 7 41 20 43 29 2 10 0 16 -5 16 -4
-1 -37 -5 -73 -10z"/>
<path d="M1040 246 c0 -18 -2 -18 -109 -17 -41 0 -79 5 -85 11 -14 14 -51 13
-63 -2 -6 -7 -11 -27 -11 -45 -1 -38 7 -41 106 -41 69 0 72 1 72 24 0 31 14
31 28 -1 13 -29 37 -33 51 -7 10 16 10 16 11 -2 0 -14 5 -17 25 -12 18 5 25 2
25 -9 0 -8 9 -15 20 -15 11 0 20 6 20 13 0 10 18 13 68 13 l67 -1 3 37 3 38
-99 -3 c-82 -2 -99 1 -98 13 1 8 -7 16 -16 18 -11 2 -18 -3 -18 -12z"/>
<path d="M320 220 c0 -16 -3 -35 -6 -44 -8 -20 25 -34 36 -15 7 10 14 11 32 2
15 -8 83 -11 193 -10 l170 2 3 38 c3 37 3 37 -35 37 -22 0 -44 5 -51 12 -8 8
-15 8 -25 -1 -20 -16 -109 -19 -115 -3 -4 14 -42 17 -42 3 0 -5 -16 -11 -35
-13 -23 -3 -35 0 -35 8 0 8 -16 12 -45 12 -43 0 -45 -1 -45 -28z"/>
</g>
</svg>
